<?xml version="1.0" encoding="UTF-8"?>
<!DOCTYPE svg PUBLIC "-//W3C//DTD SVG 1.1//EN" "http://www.w3.org/Graphics/SVG/1.1/DTD/svg11.dtd">
<!-- Creator: CorelDRAW 2020 (64-Bit) -->
<svg xmlns="http://www.w3.org/2000/svg" xml:space="preserve" width="64px" height="64px" version="1.1" style="shape-rendering:geometricPrecision; text-rendering:geometricPrecision; image-rendering:optimizeQuality; fill-rule:evenodd; clip-rule:evenodd"
viewBox="0 0 64 64"
 xmlns:xlink="http://www.w3.org/1999/xlink"
 xmlns:xodm="http://www.corel.com/coreldraw/odm/2003">
 <defs>
  <style type="text/css">
   <![CDATA[
    .str0 {stroke:#D2D5D8;stroke-width:0.11;stroke-miterlimit:22.9256}
    .str2 {stroke:#D2D5D8;stroke-width:0.11;stroke-miterlimit:22.9256}
    .str3 {stroke:#D2D5D8;stroke-width:0.08;stroke-miterlimit:22.9256}
    .str1 {stroke:#D2D5D8;stroke-width:0.58;stroke-linecap:round;stroke-linejoin:round;stroke-miterlimit:22.9256}
    .fil1 {fill:none}
    .fil2 {fill:#D2D5D8}
    .fil0 {fill:#5A80BF}
   ]]>
  </style>
 </defs>
 <g id="__xfffd__xfffd__xfffd__xfffd__x0020_1">
  <metadata id="CorelCorpID_0Corel-Layer"/>
  <g id="_1386843166976">
   <g>
    <g>
     <path class="fil0" d="M40.66 21.47l-5.99 0c0,0 0,0 0,0 -0.92,0 -1.66,0.75 -1.66,1.66 0,0.33 0.1,0.66 0.28,0.93l4.32 6.48c0.18,0.27 0.28,0.59 0.28,0.92 0,0.33 -0.1,0.65 -0.28,0.93l-4.32 6.48c-0.18,0.27 -0.28,0.59 -0.28,0.92 0,0.92 0.74,1.67 1.66,1.67 0,0 0,0 0,0l5.99 0c0.56,0 1.08,-0.28 1.39,-0.75l4.32 -6.48c0.55,-0.82 0.84,-1.78 0.84,-2.77 0,-0.98 -0.29,-1.95 -0.84,-2.77l-4.32 -6.48c-0.31,-0.46 -0.83,-0.74 -1.39,-0.74l0 0z"/>
     <path class="fil0" d="M27.34 21.47l-5.77 0c-1.84,0 -3.33,1.49 -3.33,3.33l0 13.32c0,1.84 1.49,3.34 3.33,3.34l5.77 0c0.56,0 1.08,-0.28 1.39,-0.75l5.55 -8.32c0.18,-0.28 0.28,-0.6 0.28,-0.93 0,-0.33 -0.1,-0.65 -0.28,-0.92l-5.55 -8.33c-0.31,-0.46 -0.83,-0.74 -1.39,-0.74l0 0zm0 1.66l5.55 8.33 -5.55 8.33 -5.77 0c-0.92,0 -1.67,-0.75 -1.67,-1.67l0 -13.32c0,-0.92 0.75,-1.67 1.67,-1.67l5.77 0z"/>
    </g>
    <g>
     <path class="fil1 str0" d="M12.06 34.24c-0.13,-0.95 -0.2,-1.91 -0.2,-2.87 0,-3.51 0.91,-6.95 2.63,-10.01"/>
     <path class="fil1 str1" d="M22.56 49.3c-1.36,-0.74 -2.64,-1.62 -3.8,-2.65"/>
     <path class="fil1 str1" d="M52.33 28.18c0.17,1.06 0.25,2.12 0.25,3.19"/>
     <path class="fil1 str1" d="M25.28 12.23c2.22,-0.8 4.57,-1.22 6.94,-1.22 1.42,0 2.84,0.15 4.22,0.45"/>
     <path class="fil1 str1" d="M52.07 35.89c-0.82,3.62 -2.62,6.95 -5.19,9.62"/>
     <path class="fil1 str1" d="M12.17 34.92c-0.21,-1.17 -0.31,-2.36 -0.31,-3.55 0,-3.61 0.96,-7.15 2.78,-10.27"/>
     <path class="fil1 str1" d="M36.05 51.37c-1.27,0.24 -2.55,0.36 -3.83,0.36 -2.08,0 -4.15,-0.32 -6.14,-0.94"/>
     <path class="fil1 str1" d="M17.73 17.07c0.65,-0.66 1.36,-1.28 2.1,-1.85"/>
     <path class="fil1 str1" d="M43.7 48.19c-0.71,0.49 -1.46,0.93 -2.23,1.32"/>
     <path class="fil2 str2" d="M50.59 15.85l0 0c0.15,0 0.28,0.12 0.28,0.27l0 1.05c0,0.15 -0.13,0.28 -0.28,0.28l0 0c-0.15,0 -0.28,-0.13 -0.28,-0.28l0 -1.05c0,-0.15 0.13,-0.27 0.28,-0.27zm0.63 -0.63l0 0 0 0c0,-0.15 0.12,-0.28 0.27,-0.28l1.05 0c0.15,0 0.28,0.13 0.28,0.28l0 0c0,0.15 -0.13,0.28 -0.28,0.28l-1.05 0c-0.15,0 -0.27,-0.13 -0.27,-0.28zm-2.85 0l0 0 0 0c0,-0.15 0.12,-0.28 0.27,-0.28l1.05 0c0.15,0 0.28,0.13 0.28,0.28l0 0c0,0.15 -0.13,0.28 -0.28,0.28l-1.05 0c-0.15,0 -0.27,-0.13 -0.27,-0.28zm2.22 -2.23l0 0 0 0c0.15,0 0.28,0.13 0.28,0.28l0 1.05c0,0.15 -0.13,0.27 -0.28,0.27l0 0c-0.15,0 -0.28,-0.12 -0.28,-0.27l0 -1.05c0,-0.15 0.13,-0.28 0.28,-0.28z"/>
     <path class="fil2 str2" d="M12.37 42.65l0 0c0.15,0 0.27,0.13 0.27,0.28l0 1.05c0,0.15 -0.12,0.27 -0.27,0.27l0 0c-0.16,0 -0.28,-0.12 -0.28,-0.27l0 -1.05c0,-0.15 0.12,-0.28 0.28,-0.28zm0.62 -0.62l0 0 0 0c0,-0.16 0.13,-0.28 0.28,-0.28l1.05 0c0.15,0 0.27,0.12 0.27,0.28l0 0c0,0.15 -0.12,0.27 -0.27,0.27l-1.05 0c-0.15,0 -0.28,-0.12 -0.28,-0.27zm-2.85 0l0 0 0 0c0,-0.16 0.13,-0.28 0.28,-0.28l1.05 0c0.15,0 0.27,0.12 0.27,0.28l0 0c0,0.15 -0.12,0.27 -0.27,0.27l-1.05 0c-0.15,0 -0.28,-0.12 -0.28,-0.27zm2.23 -2.23l0 0 0 0c0.15,0 0.27,0.12 0.27,0.28l0 1.04c0,0.16 -0.12,0.28 -0.27,0.28l0 0c-0.16,0 -0.28,-0.12 -0.28,-0.28l0 -1.04c0,-0.16 0.12,-0.28 0.28,-0.28z"/>
     <path class="fil2 str2" d="M48.63 49.3l0 0c0.16,0 0.28,0.12 0.28,0.28l0 1.04c0,0.16 -0.12,0.28 -0.28,0.28l0 0c-0.15,0 -0.27,-0.12 -0.27,-0.28l0 -1.04c0,-0.16 0.12,-0.28 0.27,-0.28zm0.63 -0.63l0 0 0 0c0,-0.15 0.12,-0.27 0.28,-0.27l1.04 0c0.16,0 0.28,0.12 0.28,0.27l0 0c0,0.16 -0.12,0.28 -0.28,0.28l-1.04 0c-0.16,0 -0.28,-0.12 -0.28,-0.28zm-2.85 0l0 0 0 0c0,-0.15 0.12,-0.27 0.28,-0.27l1.04 0c0.16,0 0.28,0.12 0.28,0.27l0 0c0,0.16 -0.12,0.28 -0.28,0.28l-1.04 0c-0.16,0 -0.28,-0.12 -0.28,-0.28zm2.22 -2.22l0 0 0 0c0.16,0 0.28,0.12 0.28,0.27l0 1.05c0,0.15 -0.12,0.28 -0.28,0.28l0 0c-0.15,0 -0.27,-0.13 -0.27,-0.28l0 -1.05c0,-0.15 0.12,-0.27 0.27,-0.27z"/>
     <path class="fil2 str3" d="M50.77 23.09c0.47,0 0.86,-0.39 0.86,-0.87 0,-0.47 -0.39,-0.86 -0.86,-0.86 -0.48,0 -0.87,0.39 -0.87,0.86 0,0.48 0.39,0.87 0.87,0.87z"/>
    </g>
   </g>
  </g>
 </g>
</svg>
